<mxfile host="app.diagrams.net" modified="2023-09-03T07:51:17.782Z" agent="Mozilla/5.0 (Macintosh; Intel Mac OS X 10_15_7) AppleWebKit/537.36 (KHTML, like Gecko) Chrome/116.0.0.0 Safari/537.36" version="21.6.9" etag="4nO3DPPAHnP-LJ-BDMA3" type="github">
  <diagram name="第 1 页" id="5ZrRwhr-RqbwD5oAv4ZM">
    <mxGraphModel>
      <root>
        <mxCell id="0" />
        <mxCell id="1" parent="0" />
      </root>
    </mxGraphModel>
  </diagram>
</mxfile>
